<?xml version="1.0" standalone="no"?>
<!DOCTYPE svg PUBLIC "-//W3C//DTD SVG 20010904//EN"
 "http://www.w3.org/TR/2001/REC-SVG-20010904/DTD/svg10.dtd">
<svg version="1.0" xmlns="http://www.w3.org/2000/svg"
 width="460.000000pt" height="460.000000pt" viewBox="0 0 460.000000 460.000000"
 preserveAspectRatio="xMidYMid meet">

<g transform="translate(0.000000,460.000000) scale(0.100000,-0.100000)"
class="img-perfil" stroke="none">
<path d="M0 2300 l0 -2300 2300 0 2300 0 0 314 0 315 -47 7 c-25 4 -87 4 -136
0 -71 -5 -96 -3 -123 10 -19 9 -34 19 -34 23 0 9 159 47 263 63 l77 13 0 1212
0 1213 -62 2 c-35 1 -72 1 -83 0 -11 -1 -63 -4 -115 -7 -52 -2 -122 -7 -155
-10 -33 -3 -124 -7 -201 -10 -116 -4 -143 -3 -147 9 -5 11 22 15 151 20 86 3
200 8 252 11 52 3 155 5 228 5 l132 0 0 705 0 705 -260 0 c-224 0 -260 -2
-260 -15 0 -8 4 -15 10 -15 5 0 12 -11 16 -25 3 -14 11 -25 16 -25 16 0 37
-32 38 -57 0 -13 4 -23 9 -23 9 0 31 -45 34 -71 4 -25 18 -39 37 -39 13 0 22
-9 26 -25 3 -14 10 -25 14 -25 4 0 11 -11 14 -25 4 -14 11 -25 16 -25 6 0 10
-13 10 -30 0 -16 4 -30 10 -30 5 0 12 -11 16 -25 3 -14 12 -25 19 -25 12 0 24
-39 26 -89 1 -17 3 -20 6 -8 14 52 31 -25 24 -105 -1 -11 4 -15 17 -11 10 2
24 -2 31 -10 10 -13 5 -17 -36 -25 -26 -6 -88 -27 -138 -46 -81 -32 -89 -42
-30 -38 20 2 20 2 1 -13 -19 -14 -19 -15 10 -16 16 -1 -14 -5 -66 -10 -149
-12 -201 -20 -195 -30 4 -5 19 -9 34 -9 54 0 64 -18 59 -108 -2 -45 -7 -84 -9
-86 -2 -3 -29 -6 -59 -7 -30 -2 -61 -7 -67 -12 -19 -14 -46 0 -39 19 3 9 3 20
0 25 -10 16 -34 -11 -34 -38 0 -13 -4 -21 -10 -18 -5 3 -20 -1 -32 -9 -18 -13
-19 -16 -5 -16 9 0 17 -5 17 -11 0 -6 -9 -9 -20 -6 -11 3 -23 1 -26 -5 -3 -5
-13 -7 -21 -4 -11 4 -13 2 -9 -9 4 -11 -1 -15 -19 -15 -21 0 -25 5 -25 30 0
45 -21 80 -60 100 -20 10 -60 43 -90 74 -30 31 -60 56 -67 56 -7 0 -13 5 -13
10 0 6 -6 10 -14 10 -8 0 -17 8 -20 18 -8 21 -73 55 -88 46 -7 -5 -9 2 -4 21
l7 29 -19 -25 c-11 -13 -23 -21 -27 -17 -11 11 -13 42 -3 62 7 13 7 16 -1 11
-7 -4 -18 -1 -26 5 -15 13 -20 4 -16 -27 1 -7 -2 -13 -7 -13 -17 0 -21 13 -11
31 8 15 6 19 -7 19 -11 0 -15 6 -11 20 3 13 -1 24 -12 30 -20 10 -63 2 -55
-11 3 -5 -1 -9 -8 -10 -7 0 -21 -2 -30 -4 -10 -2 -18 1 -18 6 0 6 -6 9 -12 8
-7 -1 -22 2 -33 6 -90 37 -125 48 -160 51 -130 12 -235 31 -235 44 0 4 -18 27
-40 51 -22 24 -40 47 -40 51 0 12 -60 39 -70 33 -12 -7 -9 -77 4 -86 5 -4 7
-12 4 -20 -2 -7 -14 7 -25 30 -19 37 -22 40 -25 19 -2 -18 -12 -25 -46 -32
-39 -9 -43 -13 -49 -48 -3 -21 -9 -41 -13 -43 -10 -6 -22 43 -14 57 4 6 -1 8
-15 3 -15 -5 -27 1 -43 20 -21 23 -26 25 -55 13 -24 -9 -33 -20 -38 -46 -6
-33 -7 -34 -22 -15 -16 20 -17 20 -50 -13 -19 -19 -38 -34 -43 -34 -6 0 -10
-6 -10 -14 0 -17 -27 -29 -35 -16 -4 6 2 10 12 11 12 0 9 4 -9 11 -16 5 -28
16 -28 23 0 23 -32 27 -54 6 -22 -20 -33 -20 -213 3 -21 3 -34 -1 -37 -10 -14
-36 -26 -9 -26 57 l0 70 -27 -3 c-26 -3 -28 -7 -31 -54 -3 -51 -3 -52 -40 -58
-20 -3 -55 -6 -77 -6 -66 0 -115 -12 -115 -26 0 -15 14 -17 93 -14 45 1 47 0
47 -25 0 -17 -4 -24 -11 -19 -6 3 -28 9 -48 11 -20 3 -50 13 -68 23 -26 15
-34 16 -50 5 -10 -7 -49 -13 -93 -13 -113 -1 -149 -9 -143 -32 4 -16 12 -19
38 -14 35 5 58 -12 31 -22 -9 -3 -16 -12 -16 -20 0 -8 -4 -14 -10 -14 -5 0
-10 4 -10 9 0 5 -48 7 -107 5 -80 -3 -126 0 -176 13 -66 17 -69 18 -65 45 5
34 -3 42 -65 63 -90 30 -357 -17 -340 -61 2 -7 -6 -15 -19 -19 -13 -4 -25 -11
-28 -14 -9 -11 -114 -29 -125 -21 -5 4 -27 11 -49 14 -21 4 -46 12 -55 17 -9
5 -29 14 -45 19 -25 9 -28 14 -22 40 5 28 4 30 -14 20 -16 -9 -18 -8 -14 5 4
8 1 15 -5 15 -19 0 -12 20 11 29 14 5 17 10 10 15 -18 11 -14 73 5 103 10 14
19 35 20 47 2 11 12 35 23 54 11 18 20 39 20 47 0 7 11 22 24 32 13 10 26 28
30 40 4 11 16 23 26 26 21 5 28 27 9 27 -6 0 -9 15 -7 38 3 35 1 37 -27 40
-16 2 -34 11 -39 19 -6 12 -10 13 -16 3 -6 -9 -15 0 -29 29 -18 34 -20 48 -12
76 l9 35 -64 0 -64 0 0 -2300z m2620 1673 c0 -10 -5 -25 -10 -33 -7 -11 -10
-7 -10 17 0 17 -3 40 -7 50 -6 17 -6 17 10 1 9 -9 17 -25 17 -35z m-135 7 c3
-5 1 -10 -4 -10 -6 0 -11 5 -11 10 0 6 2 10 4 10 3 0 8 -4 11 -10z m-135 -25
c0 -8 -4 -15 -10 -15 -5 0 -10 7 -10 15 0 8 5 15 10 15 6 0 10 -7 10 -15z
m291 -19 c-7 -8 -9 -21 -5 -28 5 -10 4 -10 -5 -2 -10 9 -10 17 -1 34 6 12 14
19 17 16 3 -3 0 -12 -6 -20z m-971 -41 c0 -22 -4 -25 -35 -25 -31 0 -35 3 -35
25 0 22 4 25 35 25 31 0 35 -3 35 -25z m160 5 c0 -17 -7 -20 -40 -20 -27 0
-40 4 -40 13 0 21 11 27 47 27 26 0 33 -4 33 -20z m24 5 c-4 -8 -8 -15 -10
-15 -2 0 -4 7 -4 15 0 8 4 15 10 15 5 0 7 -7 4 -15z m63 -7 c-3 -8 -6 -5 -6 6
-1 11 2 17 5 13 3 -3 4 -12 1 -19z m1315 -50 c-15 -15 -26 -4 -18 18 5 13 9
15 18 6 9 -9 9 -15 0 -24z m-2484 -26 c3 -17 -2 -22 -18 -22 -17 0 -19 3 -11
19 6 10 7 22 3 26 -4 4 0 6 8 3 8 -2 16 -14 18 -26z m570 8 c2 -11 -7 -16 -28
-18 -32 -2 -38 6 -18 26 16 16 42 11 46 -8z m110 -8 c11 -7 9 -10 -7 -15 -12
-3 -19 -2 -16 3 3 4 -2 10 -10 14 -8 3 -15 1 -15 -5 0 -6 -7 -9 -15 -5 -8 3
-14 2 -14 -2 1 -4 1 -13 0 -20 -2 -21 -21 -3 -21 20 0 16 5 19 21 15 12 -3 22
0 26 9 5 13 13 11 51 -14z m385 22 c8 -8 -30 -44 -48 -44 -15 0 -21 31 -8 43
8 9 48 9 56 1z m-1169 -19 c11 -8 17 -17 14 -20 -3 -3 -16 3 -29 14 -27 23
-14 28 15 6z m1026 -4 c0 -25 -20 -31 -102 -29 -47 1 -72 6 -80 16 -11 13 -8
14 24 10 21 -2 39 1 42 7 2 6 11 6 25 -3 18 -10 21 -10 21 3 0 10 10 15 35 15
28 0 35 -4 35 -19z m-750 -21 c11 -7 7 -10 -17 -10 -17 0 -35 5 -38 10 -8 13
35 13 55 0z m373 -30 c3 -11 1 -23 -4 -26 -5 -3 -9 6 -9 20 0 31 6 34 13 6z
m-232 -62 c27 -38 25 -68 -5 -68 -22 0 -24 4 -22 40 2 22 0 37 -5 35 -4 -3
-11 0 -15 6 -4 8 -3 9 4 5 8 -5 12 1 13 16 0 15 3 18 6 8 3 -8 14 -27 24 -42z
m303 37 c3 -8 1 -15 -4 -15 -6 0 -10 7 -10 15 0 8 2 15 4 15 2 0 6 -7 10 -15z
m172 -35 c8 0 14 5 14 11 0 5 5 7 10 4 6 -3 10 4 11 17 l0 23 9 -22 c12 -28
36 -30 43 -3 6 23 42 27 50 6 7 -19 -1 -26 -30 -26 -18 0 -23 -5 -23 -25 0
-20 5 -24 22 -22 16 1 23 -4 25 -18 1 -11 0 -14 -3 -8 -4 10 -9 9 -21 -2 -18
-19 -40 -21 -25 -2 8 10 6 13 -9 14 -13 1 -19 -5 -19 -18 0 -10 6 -19 14 -19
8 0 17 -7 20 -16 3 -8 10 -12 16 -9 5 3 10 1 10 -5 0 -7 -16 -9 -50 -4 l-50 7
0 -39 c0 -29 -3 -35 -10 -24 -14 21 -13 -5 0 -31 10 -17 7 -19 -25 -19 -24 0
-35 4 -35 15 0 8 8 15 18 15 13 0 14 2 3 9 -8 5 -12 18 -8 30 3 12 1 21 -4 21
-9 0 -13 -22 -10 -48 3 -19 -250 -13 -257 6 -3 11 19 13 119 10 88 -2 123 0
126 9 2 6 -5 17 -16 23 -24 12 -28 40 -6 40 10 0 15 10 15 30 0 17 -5 30 -13
30 -13 0 -42 40 -30 41 5 0 20 2 36 4 20 3 27 -1 28 -13 1 -15 2 -15 6 1 2 9
9 15 14 12 5 -4 10 6 10 22 l2 28 4 -27 c2 -16 11 -28 19 -28z m-645 -20 c5 0
10 8 10 18 1 9 5 1 9 -18 4 -19 8 -26 9 -15 1 24 40 29 39 5 -1 -70 6 -106 21
-105 9 0 21 4 28 8 13 8 23 -14 23 -56 0 -24 3 -28 12 -19 9 9 9 19 0 45 -17
47 -16 63 3 47 12 -10 16 -9 21 5 7 17 8 17 21 -1 13 -18 15 -18 24 -1 6 9 15
17 20 17 6 0 17 6 24 14 12 11 10 14 -11 14 -13 0 -24 -4 -24 -9 0 -5 -4 -9
-9 -9 -5 0 -7 8 -4 19 3 10 0 22 -6 25 -6 4 -11 16 -11 28 0 15 5 19 19 15 10
-2 25 -1 32 4 10 6 16 2 21 -14 5 -18 6 -15 8 13 1 19 4 29 7 22 2 -6 8 -10
12 -8 4 3 13 1 21 -4 11 -7 11 -11 1 -24 -11 -13 -11 -19 0 -33 13 -15 12 -15
-8 -4 -20 10 -23 9 -23 -8 0 -11 9 -25 20 -31 23 -13 27 -45 5 -54 -17 -6 -21
-36 -5 -36 6 0 10 -7 10 -15 0 -16 -9 -19 -35 -9 -12 5 -13 9 -5 14 7 4 11 13
8 20 -3 9 -9 7 -23 -6 -18 -19 -18 -19 -13 4 6 22 4 23 -35 20 -37 -3 -42 -6
-45 -30 -2 -20 1 -28 12 -28 9 0 16 -7 16 -15 0 -8 4 -15 10 -15 5 0 6 8 3 17
-5 13 -2 15 11 10 10 -4 26 -7 37 -7 10 0 19 -4 19 -8 0 -11 -116 -36 -130
-27 -7 4 -11 1 -9 -6 4 -32 -1 -40 -20 -34 -14 4 -23 0 -30 -13 -6 -11 -8 -22
-5 -25 6 -6 -15 -13 -66 -21 -28 -5 -31 -4 -12 4 24 10 26 18 13 39 -6 9 -18
11 -35 7 -16 -4 -26 -2 -26 4 0 6 5 8 10 5 6 -3 10 -1 10 4 0 6 -8 11 -17 12
-15 0 -15 2 2 9 16 7 13 9 -17 9 -35 1 -37 0 -33 -29 2 -16 -1 -30 -6 -30 -5
0 -9 17 -9 38 -1 20 -3 87 -6 148 -5 96 -3 111 10 111 9 0 16 -4 16 -9 0 -5
11 -13 25 -18 21 -8 25 -16 25 -47 0 -28 -3 -34 -10 -23 -5 8 -10 22 -10 31 0
11 -9 17 -26 17 -22 0 -25 -4 -22 -32 2 -17 8 -30 13 -29 6 1 15 -8 22 -20 12
-21 12 -21 13 -2 1 20 1 20 15 1 13 -17 15 -18 21 -2 4 9 4 31 0 49 -9 48 -9
59 -6 102 3 39 3 39 7 8 2 -18 8 -33 14 -33z m115 0 c10 0 14 -11 14 -37 0
-28 -3 -34 -10 -23 -8 13 -10 12 -11 -5 -1 -17 -2 -17 -6 -2 -2 9 -9 17 -14
17 -5 0 -9 7 -9 16 0 8 4 12 10 9 6 -4 8 10 6 37 -2 24 -1 31 1 16 2 -16 11
-28 19 -28z m70 33 c-10 -10 -19 5 -10 18 6 11 8 11 12 0 2 -7 1 -15 -2 -18z
m-224 -13 c3 -16 1 -30 -4 -30 -4 0 -8 14 -8 30 0 17 2 30 4 30 2 0 6 -13 8
-30z m496 11 c6 -1 12 -12 12 -26 0 -14 7 -28 15 -31 8 -4 14 -16 14 -28 -1
-17 -2 -17 -6 -3 -2 9 -8 15 -13 12 -10 -6 -1 -37 13 -47 15 -10 -19 -39 -37
-32 -9 3 -17 14 -17 23 -1 13 -2 13 -6 -2 -3 -13 -13 -17 -38 -15 -31 2 -34 4
-28 28 3 14 10 27 15 28 15 6 9 52 -7 52 -9 0 -15 9 -15 24 0 25 -5 25 98 17z
m-715 -42 c5 -17 9 -19 25 -10 17 9 21 7 26 -12 3 -12 6 -45 6 -72 0 -44 -3
-51 -20 -51 -11 0 -20 6 -20 13 0 7 7 13 15 13 11 0 15 12 15 44 0 30 -5 46
-15 50 -8 3 -15 0 -15 -6 0 -7 -4 -7 -12 -1 -7 5 -23 8 -35 7 -16 -1 -23 4
-23 15 0 40 43 48 53 10z m-93 -4 c0 -14 -4 -25 -10 -25 -5 0 -10 11 -10 25 0
14 5 25 10 25 6 0 10 -11 10 -25z m-63 -3 c1 -10 -4 -19 -11 -19 -8 0 -11 8
-8 19 2 10 7 18 11 18 4 0 7 -8 8 -18z m246 2 c4 -1 14 -2 23 -3 14 -1 14 -3
-1 -17 -10 -10 -14 -25 -11 -38 3 -12 6 -25 7 -31 1 -5 5 6 9 25 7 32 7 30 9
-20 1 -30 4 -66 6 -80 5 -22 3 -21 -9 5 l-15 30 -1 -32 c0 -23 5 -33 15 -33
10 0 15 -10 15 -30 0 -27 -3 -30 -30 -30 -27 0 -30 3 -30 30 0 17 5 30 10 30
6 0 10 14 10 30 0 40 -18 38 -23 -2 -2 -18 -4 -1 -4 37 0 39 1 62 4 52 2 -9 9
-15 14 -12 11 8 0 55 -18 73 -17 17 -17 36 0 25 6 -4 15 -8 20 -9z m-176 -101
c10 -14 11 -23 4 -23 -6 0 -12 -17 -12 -37 -1 -21 -3 -29 -6 -18 -2 11 -6 30
-9 43 -2 13 -9 20 -15 16 -8 -4 -8 0 0 14 6 11 12 33 12 49 2 26 2 26 6 4 3
-14 12 -35 20 -48z m79 17 c8 0 14 -10 14 -25 0 -14 -4 -25 -10 -25 -5 0 -10
-13 -10 -30 0 -28 2 -29 38 -27 35 2 37 0 40 -30 3 -27 0 -31 -17 -26 -12 3
-21 16 -24 32 -4 24 -4 24 -6 -5 -1 -28 -4 -30 -30 -26 -23 3 -30 10 -33 32
-3 20 -1 27 9 23 11 -4 13 4 12 35 -2 33 -6 39 -16 30 -10 -8 -13 -5 -13 16 0
16 4 25 10 21 6 -4 11 8 11 27 2 30 2 31 6 6 2 -16 11 -28 19 -28z m504 -45
c0 -8 -2 -15 -4 -15 -2 0 -6 7 -10 15 -3 8 -1 15 4 15 6 0 10 -7 10 -15z
m2970 -66 c0 -6 -7 -8 -16 -5 -8 3 -12 2 -9 -4 10 -16 -25 -12 -41 5 -14 13
-11 15 25 15 23 0 41 -5 41 -11z m-95 -9 c-3 -5 -10 -10 -16 -10 -5 0 -9 5 -9
10 0 6 7 10 16 10 8 0 12 -4 9 -10z m-3488 -32 c-3 -7 -5 -2 -5 12 0 14 2 19
5 13 2 -7 2 -19 0 -25z m43 11 c10 -18 9 -20 -7 -17 -10 2 -19 11 -21 21 -5
24 15 21 28 -4z m3510 -3 c0 -3 -4 -8 -10 -11 -5 -3 -10 -1 -10 4 0 6 5 11 10
11 6 0 10 -2 10 -4z m-2983 -48 c-3 -8 -6 -5 -6 6 -1 11 2 17 5 13 3 -3 4 -12
1 -19z m3193 1 c0 -11 -4 -18 -10 -14 -5 3 -7 12 -3 20 7 21 13 19 13 -6z
m-3572 -14 c-3 -3 -9 2 -12 12 -6 14 -5 15 5 6 7 -7 10 -15 7 -18z m162 -7 c0
-19 -2 -20 -10 -8 -13 19 -13 30 0 30 6 0 10 -10 10 -22z m-508 -18 c10 -18
25 -30 38 -30 11 0 20 -4 20 -10 0 -16 -29 -11 -48 8 -12 12 -30 17 -55 16
-20 -1 -37 1 -37 6 0 5 -2 15 -5 22 -4 10 5 15 32 16 33 2 40 -2 55 -28z m171
14 c-4 -12 -2 -15 8 -12 8 3 13 11 12 17 -5 18 11 13 25 -9 14 -22 37 -17 28
6 -3 8 1 14 9 14 10 0 14 -9 13 -26 -2 -25 -4 -25 -48 -19 -25 4 -48 9 -52 12
-11 6 -10 33 2 33 5 0 7 -7 3 -16z m277 1 c0 -8 -2 -15 -4 -15 -2 0 -6 7 -10
15 -3 8 -1 15 4 15 6 0 10 -7 10 -15z m-75 -34 c0 -16 -3 -33 -7 -37 -5 -4 -8
2 -8 14 0 11 -3 27 -6 36 -4 10 -1 16 7 16 9 0 14 -11 14 -29z m319 8 c4 -4
-3 -6 -17 -6 -20 0 -23 2 -14 12 7 7 14 10 17 7 3 -4 9 -10 14 -13z m3183 5
c-3 -3 -12 -4 -19 -1 -8 3 -5 6 6 6 11 1 17 -2 13 -5z m-424 -11 c-7 -2 -19
-2 -25 0 -7 3 -2 5 12 5 14 0 19 -2 13 -5z m417 -13 c0 -5 -4 -10 -10 -10 -5
0 -10 5 -10 10 0 6 5 10 10 10 6 0 10 -4 10 -10z m-3983 -16 c-3 -3 -12 -4
-19 -1 -8 3 -5 6 6 6 11 1 17 -2 13 -5z m63 -4 c0 -5 -6 -10 -14 -10 -8 0 -18
5 -21 10 -3 6 3 10 14 10 12 0 21 -4 21 -10z m733 3 c-7 -2 -21 -2 -30 0 -10
3 -4 5 12 5 17 0 24 -2 18 -5z m-393 -13 c18 -6 9 -8 -35 -8 -44 0 -53 2 -35
8 14 4 30 8 35 8 6 0 21 -4 35 -8z m127 4 c-3 -3 -12 -4 -19 -1 -8 3 -5 6 6 6
11 1 17 -2 13 -5z m96 -1 c-7 -2 -21 -2 -30 0 -10 3 -4 5 12 5 17 0 24 -2 18
-5z m-400 -10 c-7 -2 -19 -2 -25 0 -7 3 -2 5 12 5 14 0 19 -2 13 -5z m487 -13
c0 -5 -19 -9 -42 -9 -40 1 -41 2 -13 9 44 11 55 11 55 0z m67 -2 c-21 -7 -32
-7 -40 1 -8 8 0 11 29 10 39 -1 39 -1 11 -11z m-257 -2 c0 -8 -48 -12 -66 -5
-13 5 -7 8 24 8 23 1 42 -1 42 -3z m835 -54 c3 -8 2 -24 -1 -37 -5 -20 -14
-25 -57 -30 -29 -3 -108 -5 -177 -3 l-125 3 -3 33 c-2 17 -2 32 0 33 2 0 64 3
138 6 74 3 136 6 138 8 10 9 82 -2 87 -13z m-379 -39 c1 -38 -2 -39 -216 -49
l-146 -6 -2 40 c-3 51 -7 50 203 48 l160 -1 1 -32z m-405 10 c0 -10 2 -27 3
-39 2 -21 -2 -21 -237 -27 -248 -7 -517 -7 -437 1 l45 4 -39 19 c-23 11 -63
20 -95 20 -137 4 247 24 707 37 43 2 52 -1 53 -15z m29 -28 c0 -8 -2 -15 -4
-15 -2 0 -6 7 -10 15 -3 8 -1 15 4 15 6 0 10 -7 10 -15z m2186 -12 c-10 -10
-19 5 -10 18 6 11 8 11 12 0 2 -7 1 -15 -2 -18z m-80 -20 c-10 -10 -19 5 -10
18 6 11 8 11 12 0 2 -7 1 -15 -2 -18z m-1426 -83 c-8 -5 -71 -9 -140 -8 -124
2 -124 2 -40 8 145 11 197 11 180 0z m-684 -19 c-3 -5 -77 -8 -163 -8 -97 0
-141 3 -113 7 67 10 282 11 276 1z m-338 -16 c-8 -9 -152 -15 -171 -8 -15 6 2
10 58 13 72 5 121 2 113 -5z m2162 0 c0 -8 -4 -15 -10 -15 -5 0 -10 7 -10 15
0 8 5 15 10 15 6 0 10 -7 10 -15z m294 0 c-6 -16 -34 -21 -34 -7 0 13 11 22
26 22 8 0 11 -6 8 -15z m-1791 -2 c-18 -2 -48 -2 -65 0 -18 2 -4 4 32 4 36 0
50 -2 33 -4z m237 -3 c17 -5 -1 -8 -55 -8 -57 0 -71 3 -50 8 39 10 74 10 105
0z m1120 -10 c0 -21 -15 -27 -25 -10 -7 12 2 30 16 30 5 0 9 -9 9 -20z m-1502
3 c-26 -2 -71 -2 -100 0 -29 2 -8 3 47 3 55 0 79 -1 53 -3z m1172 -7 c0 -8 -7
-17 -16 -20 -16 -6 -16 -8 0 -24 20 -23 20 -46 0 -63 -13 -10 -17 -10 -24 0
-4 8 -13 10 -19 7 -15 -10 -14 -58 2 -79 10 -14 16 -15 37 -4 13 7 29 22 35
34 19 37 37 53 61 53 26 0 30 -10 12 -28 -9 -9 -9 -15 -1 -23 17 -17 48 -6 51
19 3 20 9 22 73 22 l69 0 17 35 c9 19 20 35 25 35 14 0 9 -47 -7 -60 -9 -7
-13 -21 -10 -31 4 -10 -1 -35 -11 -54 -19 -41 -13 -56 14 -32 10 10 27 17 36
17 10 0 20 9 23 20 9 33 23 22 23 -17 1 -34 2 -36 14 -21 7 10 24 19 37 20 22
3 25 -2 29 -42 3 -27 10 -45 18 -44 33 3 35 5 16 18 -18 13 -20 21 -13 76 5
44 3 69 -6 88 -14 25 -9 55 5 33 9 -16 29 8 39 46 8 28 36 42 52 26 5 -5 5
-22 0 -40 -7 -25 -6 -31 4 -27 8 3 20 -6 29 -23 l14 -28 13 48 c14 49 23 58
33 31 12 -30 -4 -84 -25 -84 -22 0 -26 -39 -7 -69 12 -20 4 -56 -11 -47 -4 3
-1 -9 8 -27 16 -33 16 -33 34 -13 14 17 16 18 11 4 -10 -28 23 -22 51 8 14 15
25 32 25 38 0 7 5 17 12 24 14 14 48 -2 48 -24 0 -9 7 -22 16 -31 14 -14 16
-14 21 6 6 25 47 29 69 6 20 -19 34 -19 34 1 0 15 55 44 85 44 19 0 19 -18 -1
-66 -15 -36 -17 -37 -30 -20 -7 10 -20 16 -28 13 -21 -8 -39 -44 -26 -52 5 -3
10 -15 10 -26 0 -29 33 -24 63 11 15 16 27 33 27 38 0 22 51 36 135 38 50 1
102 3 118 3 20 1 27 6 27 22 0 13 10 23 28 30 15 5 36 23 46 39 9 17 20 30 25
30 11 0 28 -95 21 -117 -5 -15 3 -135 13 -198 2 -11 13 -42 25 -68 21 -48 29
-107 15 -107 -5 0 -36 7 -71 15 -63 15 -87 16 -276 16 -94 0 -101 2 -128 27
-15 15 -28 34 -28 42 0 23 -54 44 -79 30 -16 -8 -26 -7 -46 6 -22 14 -32 15
-65 5 -22 -6 -40 -16 -40 -21 0 -6 -8 -10 -18 -10 -10 0 -28 -12 -41 -26 -12
-14 -29 -23 -37 -20 -8 3 -14 -1 -14 -9 0 -8 -21 -24 -46 -35 -49 -23 -93 -20
-115 6 -14 17 -72 18 -99 2 -15 -10 -22 -9 -38 5 -14 13 -42 19 -111 22 -50 2
-91 0 -91 -5 0 -5 -12 -10 -27 -12 -22 -2 -28 -8 -26 -25 2 -17 -2 -23 -17
-23 -11 0 -20 -4 -20 -9 0 -9 -117 -37 -139 -32 -8 1 -17 -3 -22 -10 -6 -10
-11 -10 -22 -1 -7 7 -17 9 -20 5 -4 -3 -13 -1 -21 6 -11 9 -24 8 -57 -6 -24
-10 -69 -17 -101 -18 -31 0 -54 -3 -52 -7 3 -5 -2 -8 -11 -8 -18 0 -15 21 10
70 7 14 13 39 13 55 0 17 10 50 21 75 11 25 21 58 21 73 0 56 85 197 118 197
6 0 9 6 6 14 -8 21 25 79 41 72 8 -3 12 0 9 7 -5 14 35 95 69 138 23 30 57 38
57 15z m280 -10 c0 -13 -3 -31 -6 -40 -8 -21 -54 -21 -54 -1 0 8 4 15 9 15 5
0 12 11 15 25 8 32 36 33 36 1z m-1642 7 c-21 -2 -57 -2 -80 0 -24 2 -7 4 37
4 44 0 63 -2 43 -4z m-175 -10 c-13 -2 -35 -2 -50 0 -16 2 -5 4 22 4 28 0 40
-2 28 -4z m763 -2 c-4 -5 0 -12 6 -14 7 -3 -13 -6 -45 -6 -50 -1 -60 -4 -64
-21 -4 -15 -14 -20 -37 -20 -17 0 -38 5 -46 10 -11 7 -3 10 29 10 43 0 44 0
26 20 -18 20 -18 20 45 13 47 -4 61 -3 56 5 -5 8 0 12 14 12 12 0 19 -4 16 -9z
m1212 -35 c3 -20 0 -27 -10 -24 -7 3 -14 17 -16 32 -3 20 0 27 10 24 7 -3 14
-17 16 -32z m-20 -48 c2 -9 -5 -24 -15 -34 -17 -17 -18 -17 -21 5 -2 12 -1 29
2 38 7 18 30 12 34 -9z m-1376 -9 c-21 -6 -39 -6 -50 0 -13 8 -5 10 33 10 48
-1 49 -1 17 -10z m-57 -37 c-16 -2 -34 -11 -40 -19 -9 -12 -16 -13 -31 -5 -18
11 -17 11 6 12 14 1 19 4 11 7 -24 10 7 19 46 14 36 -5 36 -6 8 -9z m1755 -21
c0 -26 -16 -35 -24 -15 -10 25 -7 34 9 34 8 0 15 -9 15 -19z m-1855 -1 c4 -6
-24 -11 -77 -12 l-83 -2 70 -6 c85 -8 83 -9 -25 -14 -47 -2 -107 -11 -133 -21
-27 -9 -56 -14 -64 -11 -9 4 -21 2 -27 -2 -15 -12 -120 -24 -140 -16 -35 14
-12 24 53 24 68 0 68 0 63 25 l-4 26 83 -4 c46 -2 89 -5 94 -8 6 -2 10 1 10 6
0 6 34 13 75 16 41 3 80 6 87 7 6 1 15 -2 18 -8z m428 3 c-7 -2 -19 -2 -25 0
-7 3 -2 5 12 5 14 0 19 -2 13 -5z m-213 -23 c17 -6 9 -7 -25 -3 -27 3 -52 7
-54 9 -8 7 54 2 79 -6z m-750 -9 c0 -10 -98 -21 -117 -14 -7 3 -10 9 -7 14 7
12 124 12 124 0z m860 -1 c0 -5 -4 -10 -9 -10 -6 0 -13 5 -16 10 -3 6 1 10 9
10 9 0 16 -4 16 -10z m-805 -90 c4 -6 -6 -10 -24 -10 -16 0 -33 5 -36 10 -4 6
6 10 24 10 16 0 33 -4 36 -10z m-50 -40 c3 -5 -2 -10 -12 -10 -15 0 -16 -2 -3
-10 13 -9 13 -10 0 -10 -8 0 -21 9 -28 20 -11 18 -10 20 12 20 14 0 28 -4 31
-10z m-60 -40 c3 -6 -4 -10 -17 -10 -18 0 -20 2 -8 10 19 12 18 12 25 0z
m3493 -281 c31 -10 71 -73 56 -87 -3 -4 -9 -1 -11 6 -7 18 -22 15 -58 -12 -39
-30 -55 -22 -62 34 -5 35 -2 46 12 57 23 16 24 16 63 2z m-2455 -26 c-7 -2
-19 -2 -25 0 -7 3 -2 5 12 5 14 0 19 -2 13 -5z m-158 -53 c-3 -5 -15 -10 -26
-10 -11 0 -17 5 -14 10 3 6 15 10 26 10 11 0 17 -4 14 -10z m122 4 c-3 -3 -12
-4 -19 -1 -8 3 -5 6 6 6 11 1 17 -2 13 -5z m-190 -10 c-3 -3 -12 -4 -19 -1 -8
3 -5 6 6 6 11 1 17 -2 13 -5z m269 -38 c3 -8 2 -34 -3 -58 -7 -36 -13 -43 -33
-46 -19 -2 -28 4 -37 23 -14 31 -7 53 22 77 25 21 44 23 51 4z m2305 -9 c-13
-13 -26 -3 -16 12 3 6 11 8 17 5 6 -4 6 -10 -1 -17z m-501 5 l-35 -5 35 -8
c33 -7 32 -7 -12 -6 -25 1 -44 0 -42 -3 5 -4 -244 -58 -296 -64 -14 -1 -36 -6
-50 -9 -20 -6 -19 -4 5 8 17 7 38 11 49 8 11 -3 16 -1 12 5 -7 11 91 44 169
58 22 3 47 10 55 15 8 5 44 8 80 7 45 -1 54 -3 30 -6z m-2256 -11 c4 -5 -3 -7
-14 -4 -23 6 -26 13 -6 13 8 0 17 -4 20 -9z m2701 -21 c3 -5 -1 -10 -9 -10 -9
0 -16 5 -16 10 0 6 4 10 9 10 6 0 13 -4 16 -10z m-2588 -36 c-3 -3 -12 -4 -19
-1 -8 3 -5 6 6 6 11 1 17 -2 13 -5z m1218 -25 c17 -1 16 -2 -5 -10 -17 -5 -8
-7 30 -4 34 3 67 0 85 -8 l30 -14 -45 -1 c-28 0 -38 2 -27 7 11 4 -66 6 -170
5 -162 -2 -298 -15 -403 -39 -14 -3 -9 1 10 8 30 12 32 15 15 20 -11 3 0 3 25
0 34 -3 41 -2 30 6 -11 9 -4 10 30 6 35 -4 40 -3 20 5 -18 6 -5 7 43 3 45 -3
67 -2 67 5 0 11 143 22 210 15 19 -1 44 -3 55 -4z m420 -15 c79 -9 83 -11 52
-40 -15 -14 -25 -29 -22 -34 3 -6 -1 -7 -10 -4 -11 5 -14 2 -9 -10 3 -9 12
-16 19 -16 19 0 29 -55 15 -80 -7 -12 -10 -31 -7 -41 6 -23 -1 -24 -27 -4 -22
16 -50 20 -42 6 4 -5 -3 -7 -14 -4 -39 10 -19 -8 35 -32 76 -33 139 -81 160
-119 10 -19 41 -47 71 -65 122 -73 91 -141 -63 -141 -35 0 -78 -6 -96 -13 -53
-23 -166 -29 -217 -13 -25 7 -59 11 -75 8 -51 -10 -165 -4 -181 8 -7 7 -14 20
-14 29 0 15 -10 17 -87 13 -53 -3 -97 -11 -110 -19 -14 -9 -33 -13 -48 -9 -14
4 -25 2 -25 -2 0 -5 -15 -13 -32 -18 -21 -6 -38 -20 -48 -39 -11 -23 -15 -26
-18 -13 -4 22 -49 35 -65 19 -14 -14 -47 -15 -47 -1 0 7 -6 7 -19 0 -28 -15
-38 -13 -44 10 -3 11 -16 24 -29 29 -30 12 -55 43 -60 73 -2 13 -9 22 -16 21
-6 -2 -12 2 -12 8 0 6 -6 17 -14 25 -11 11 -16 11 -19 1 -4 -7 -6 -6 -6 4 -1
9 -7 22 -15 28 -8 7 -20 36 -26 64 -12 54 -22 147 -16 147 2 0 13 -16 25 -35
11 -19 28 -35 38 -35 10 0 31 -14 46 -32 21 -25 27 -28 23 -13 -2 11 -6 38 -9
60 -2 22 -2 33 0 24 2 -10 19 -20 41 -24 20 -4 41 -10 47 -13 5 -3 22 -5 38
-3 17 1 29 -3 33 -13 3 -8 12 -12 19 -10 7 3 16 1 20 -5 3 -6 17 -11 30 -11
36 0 60 -11 44 -21 -18 -11 -7 -19 27 -23 16 -2 37 3 46 11 10 9 24 13 32 10
8 -3 29 1 47 10 25 13 36 13 51 4 13 -8 24 -8 38 -1 25 14 30 13 24 -4 -4 -11
0 -13 15 -9 12 3 21 9 21 14 0 5 13 9 29 9 22 0 39 11 70 46 23 26 41 51 41
55 0 5 14 9 30 9 61 0 64 -88 5 -175 -39 -56 -33 -80 13 -55 17 10 28 26 30
44 4 32 94 126 141 147 l30 13 -32 11 c-41 14 -49 11 -66 -26 -9 -21 -17 -27
-24 -20 -7 7 -7 15 2 24 7 10 8 23 3 38 -5 14 -5 37 0 56 5 18 6 38 2 44 -4 6
0 15 7 20 10 6 8 9 -8 9 -42 0 -23 20 20 21 42 1 42 1 -13 10 -76 13 -87 29
-17 25 31 -2 56 -1 55 3 -4 35 28 53 82 46 19 -3 58 -8 85 -11z m-1025 -64
c-8 -5 -19 -10 -25 -10 -5 0 -3 5 5 10 8 5 20 10 25 10 6 0 3 -5 -5 -10z m40
-10 c-8 -5 -19 -10 -25 -10 -5 0 -3 5 5 10 8 5 20 10 25 10 6 0 3 -5 -5 -10z
m-94 -15 c-8 -8 -18 -15 -22 -15 -3 0 -1 7 6 15 7 8 17 15 22 15 5 0 3 -7 -6
-15z m1190 -83 c-9 -9 -37 8 -31 18 5 8 11 7 21 -1 8 -6 12 -14 10 -17z
m-1633 1 c-7 -2 -19 -2 -25 0 -7 3 -2 5 12 5 14 0 19 -2 13 -5z m-75 -17 c-20
-6 -40 -14 -44 -18 -11 -12 -64 -10 -64 2 0 6 10 10 23 10 12 0 29 5 37 10 8
5 31 9 50 9 l35 -1 -37 -12z m-163 -12 c-27 -7 -54 -12 -60 -10 -14 5 54 24
85 24 15 0 4 -6 -25 -14z m1495 6 c0 -5 -4 -10 -10 -10 -5 0 -10 5 -10 10 0 6
5 10 10 10 6 0 10 -4 10 -10z m1200 -4 c0 -7 -9 -25 -20 -39 -24 -30 -25 -37
-5 -37 8 0 15 7 15 15 0 8 4 15 9 15 5 0 12 10 16 23 6 21 7 21 17 -6 12 -33
2 -96 -16 -103 -7 -3 -26 2 -42 11 -51 26 -55 18 -24 -42 17 -32 30 -63 30
-69 0 -7 6 -15 13 -18 9 -5 9 -7 -1 -12 -6 -3 -10 -10 -7 -14 3 -5 -3 -18 -15
-30 -16 -16 -33 -20 -84 -20 -39 0 -66 -4 -68 -11 -9 -27 -185 -10 -229 22
-15 10 -35 19 -46 19 -15 0 -16 2 -3 10 12 8 9 10 -12 10 -15 0 -30 5 -33 10
-3 6 -19 10 -36 10 -16 0 -29 4 -29 9 0 4 -27 14 -60 20 -33 7 -62 16 -65 21
-4 6 -10 10 -16 10 -5 0 5 -13 23 -29 18 -16 30 -32 27 -36 -10 -9 -66 42
-100 91 -16 24 -35 44 -42 44 -7 0 -13 17 -14 43 -1 23 -3 48 -5 56 -6 26 29
23 59 -6 90 -87 117 -98 227 -96 53 1 110 8 136 17 25 9 52 16 60 16 22 1 63
38 55 50 -3 5 -3 10 2 10 4 0 39 9 77 19 38 11 75 17 81 14 7 -2 16 0 20 6 10
17 105 14 105 -3z m-2040 -21 c0 -8 -4 -15 -10 -15 -5 0 -10 7 -10 15 0 8 5
15 10 15 6 0 10 -7 10 -15z m-637 -2 c-7 -2 -19 -2 -25 0 -7 3 -2 5 12 5 14 0
19 -2 13 -5z m272 -3 c3 -6 -5 -10 -19 -10 -14 0 -28 5 -31 10 -3 6 5 10 19
10 14 0 28 -4 31 -10z m150 0 c3 -6 -4 -10 -18 -10 -14 0 -30 -7 -37 -15 -11
-13 -7 -15 26 -17 22 -1 -15 -5 -81 -8 -66 -4 -131 -10 -144 -15 -18 -6 -22
-5 -16 4 5 9 0 8 -16 -2 -33 -20 -76 -29 -84 -17 -3 5 3 10 15 10 12 0 18 5
15 10 -4 6 -10 8 -15 5 -5 -3 -11 -1 -15 5 -3 5 2 11 12 11 10 1 5 5 -12 9
-24 6 -26 8 -7 9 12 0 22 4 22 9 0 4 18 7 40 7 25 1 35 -2 27 -8 -7 -5 34 -6
98 -3 62 3 111 10 113 16 5 13 69 13 77 0z m1435 -65 c0 -5 -5 -3 -10 5 -5 8
-10 20 -10 25 0 6 5 3 10 -5 5 -8 10 -19 10 -25z m-1495 -6 c-18 -5 -33 -5
-39 1 -7 7 4 10 30 9 39 -1 39 -1 9 -10z m-80 -8 c-20 -4 -5 -7 49 -11 86 -5
112 -24 49 -34 -56 -9 -63 -10 -122 -8 -43 2 -52 5 -47 17 4 10 -1 15 -15 15
-15 0 -19 -5 -15 -15 3 -9 0 -15 -10 -15 -9 0 -14 7 -12 18 3 20 64 40 118 40
35 -1 35 -1 5 -7z m-611 -33 c-3 -4 -17 -8 -32 -8 -20 0 -23 3 -13 9 18 11 52
10 45 -1z m411 2 c-3 -5 -14 -10 -23 -10 -15 0 -15 2 -2 10 20 13 33 13 25 0z
m-618 -26 c-3 -3 -12 -4 -19 -1 -8 3 -5 6 6 6 11 1 17 -2 13 -5z m496 -1 c-7
-2 -19 -2 -25 0 -7 3 -2 5 12 5 14 0 19 -2 13 -5z m-148 -23 c-11 -5 -31 -8
-45 -8 -23 0 -22 1 5 8 42 11 65 11 40 0z m183 -11 c-20 -13 -28 -11 -22 5 3
8 12 12 21 9 12 -5 12 -7 1 -14z m145 14 c-7 -2 -19 -2 -25 0 -7 3 -2 5 12 5
14 0 19 -2 13 -5z m-486 -9 c-3 -3 -12 -4 -19 -1 -8 3 -5 6 6 6 11 1 17 -2 13
-5z m793 -10 c-14 -10 -27 -21 -30 -26 -3 -4 -39 -10 -80 -13 l-75 -5 45 14
45 14 -45 2 -45 3 42 6 c24 4 45 9 47 12 2 2 31 5 63 7 58 3 58 3 33 -14z
m-493 0 c-3 -3 -12 -4 -19 -1 -8 3 -5 6 6 6 11 1 17 -2 13 -5z m76 -21 c-7 -2
-19 -2 -25 0 -7 3 -2 5 12 5 14 0 19 -2 13 -5z m212 -3 c-28 -12 -37 -12 -30
0 3 6 16 10 28 9 21 0 21 -1 2 -9z m-880 -20 c-11 -5 -33 -8 -50 -8 -29 1 -29
1 5 8 49 10 69 10 45 0z m954 -16 c2 -2 -32 -4 -77 -4 -44 0 -89 -3 -99 -7
-15 -6 -16 -4 -6 8 10 13 30 15 95 12 46 -3 85 -6 87 -9z m151 7 c0 -8 -56
-21 -94 -21 -20 0 -20 0 0 15 20 15 94 21 94 6z m-360 -10 c0 -5 -14 -9 -31
-9 -20 1 -26 4 -17 9 18 12 48 11 48 0z m199 -15 c-8 -8 -78 -10 -85 -3 -4 4
14 7 41 7 27 0 46 -2 44 -4z m-559 -15 c0 -14 -29 -22 -58 -14 l-27 7 25 7
c36 10 60 10 60 0z m363 2 c-7 -2 -19 -2 -25 0 -7 3 -2 5 12 5 14 0 19 -2 13
-5z m-613 -13 c-8 -5 -35 -9 -60 -9 -34 0 -40 2 -25 9 29 13 104 13 85 0z
m395 0 c-3 -5 -15 -10 -26 -10 -10 0 -19 5 -19 10 0 6 12 10 26 10 14 0 23 -4
19 -10z m110 0 c-16 -7 -14 -9 15 -9 24 -1 31 -4 21 -10 -11 -7 -10 -10 5 -13
10 -2 0 -6 -23 -9 -23 -2 -39 -1 -36 4 6 10 -43 -2 -76 -19 -14 -8 -33 -14
-41 -13 -10 0 -8 3 5 9 17 7 16 9 -10 10 -23 1 -12 8 50 29 75 27 134 40 90
21z m190 0 c-16 -4 -52 -8 -80 -7 -50 0 -50 0 -10 6 22 4 58 7 80 8 37 1 38 1
10 -7z m203 -29 c11 -7 11 -9 -2 -14 -8 -3 -18 -2 -22 4 -3 6 -26 8 -52 4 -34
-4 -41 -2 -27 4 25 12 86 13 103 2z m92 -1 c0 -5 -7 -10 -16 -10 -8 0 -12 5
-9 10 3 6 10 10 16 10 5 0 9 -4 9 -10z m-137 -31 c40 -5 79 -4 93 2 36 13 54
11 54 -6 0 -10 -10 -15 -30 -15 -17 0 -42 -7 -56 -16 -19 -13 -38 -15 -84 -11
-35 4 -62 3 -65 -3 -3 -6 -12 -10 -18 -10 -7 0 2 9 18 20 17 11 25 20 18 20
-7 0 -17 10 -24 22 -10 19 -9 20 7 13 11 -4 50 -12 87 -16z m1737 -41 c11 -24
27 -54 35 -68 53 -90 61 -143 26 -174 -16 -15 -21 -13 -56 26 -22 23 -40 53
-42 67 -2 14 -6 50 -9 78 -6 45 8 113 22 113 2 0 12 -19 24 -42z m-2367 15
c-7 -2 -19 -2 -25 0 -7 3 -2 5 12 5 14 0 19 -2 13 -5z m227 -23 c-8 -6 -28 -9
-45 -9 l-30 1 33 8 c18 4 36 10 39 14 4 3 9 4 12 0 3 -3 -1 -9 -9 -14z m-617
-7 c-13 -2 -33 -2 -45 0 -13 2 -3 4 22 4 25 0 35 -2 23 -4z m54 1 c-3 -3 -12
-4 -19 -1 -8 3 -5 6 6 6 11 1 17 -2 13 -5z m1928 -48 c8 -54 1 -81 -34 -126
-15 -19 -33 -44 -39 -55 -28 -50 -29 -50 -51 -24 -27 32 -27 37 14 105 19 32
35 63 35 69 0 6 14 21 30 34 17 12 28 26 25 32 -4 5 -2 9 4 9 5 0 13 -20 16
-44z m-1492 27 c-7 -2 -19 -2 -25 0 -7 3 -2 5 12 5 14 0 19 -2 13 -5z m-68
-13 c8 -13 -20 -24 -42 -16 -15 6 -15 8 -3 16 20 13 37 12 45 0z m439 0 c-6
-6 -28 -13 -50 -16 l-39 -5 35 14 c44 18 68 21 54 7z m-169 -10 c-3 -5 -18
-10 -33 -10 -21 0 -24 2 -12 10 20 13 53 13 45 0z m-790 -30 c-27 -12 -43 -12
-25 0 8 5 22 9 30 9 10 0 8 -3 -5 -9z m671 -68 c0 -14 -7 -17 -33 -14 -41 5
-41 9 0 21 17 5 32 10 32 10 1 1 1 -7 1 -17z m-231 -72 c3 -6 -1 -7 -9 -4 -18
7 -21 14 -7 14 6 0 13 -4 16 -10z m365 -4 c0 -3 -4 -8 -10 -11 -5 -3 -10 -1
-10 4 0 6 5 11 10 11 6 0 10 -2 10 -4z m368 -3 c-10 -2 -26 -2 -35 0 -10 3 -2
5 17 5 19 0 27 -2 18 -5z m145 -10 c-7 -2 -21 -2 -30 0 -10 3 -4 5 12 5 17 0
24 -2 18 -5z m-946 -9 c-3 -3 -12 -4 -19 -1 -8 3 -5 6 6 6 11 1 17 -2 13 -5z
m590 -9 c0 -19 -7 -18 -31 0 -19 14 -19 15 5 15 16 0 26 -6 26 -15z m33 5 c0
-5 -5 -10 -11 -10 -5 0 -7 5 -4 10 3 6 8 10 11 10 2 0 4 -4 4 -10z m263 3 c-7
-2 -19 -2 -25 0 -7 3 -2 5 12 5 14 0 19 -2 13 -5z m7 -27 c0 -2 -9 -6 -20 -9
-11 -3 -18 -1 -14 4 5 9 34 13 34 5z m43 -3 c-7 -2 -19 -2 -25 0 -7 3 -2 5 12
5 14 0 19 -2 13 -5z m1095 -175 c38 -31 41 -53 10 -62 -37 -10 -60 -7 -52 6 5
8 2 9 -11 4 -11 -4 -22 -2 -27 6 -9 15 -11 62 -2 71 13 12 52 1 82 -25z m175
-37 c-21 -26 -40 -27 -65 -4 -19 17 -18 18 29 34 54 18 68 7 36 -30z m427 -31
c16 -16 30 -33 30 -38 0 -20 -31 -82 -41 -82 -5 0 -8 -4 -5 -9 3 -5 0 -14 -8
-20 -11 -9 -18 -6 -34 16 -35 50 -37 89 -7 128 14 19 28 35 30 35 2 0 18 -13
35 -30z m-1046 -65 c32 -29 33 -49 5 -69 -25 -17 -36 -9 -57 38 -10 21 -10 32
-1 42 16 19 22 18 53 -11z m946 -272 c42 -50 60 -77 60 -90 0 -8 -4 -11 -10
-8 -5 3 -10 -2 -10 -12 0 -15 -2 -15 -10 -3 -7 11 -11 9 -19 -13 -6 -16 -11
-33 -11 -38 0 -16 -51 -31 -65 -19 -10 9 -19 3 -37 -22 -13 -18 -32 -35 -43
-36 -11 -2 -24 -11 -28 -19 -7 -11 -19 -13 -49 -8 -73 13 -100 12 -116 -4 -11
-12 -16 -13 -20 -3 -6 18 -32 14 -32 -5 0 -15 -2 -15 -9 -4 -10 16 9 41 31 41
8 0 21 12 30 28 39 64 144 155 228 196 8 4 26 13 40 21 33 19 52 19 70 -2z
m-780 -72 c0 -15 69 -51 116 -61 42 -9 64 -23 115 -70 35 -32 67 -57 71 -54 4
3 8 -4 8 -15 0 -24 -20 -27 -50 -9 -16 10 -24 10 -40 1 -24 -16 -47 -8 -56 19
-4 15 -9 17 -17 9 -9 -9 -16 -6 -29 11 -17 21 -19 22 -31 6 -15 -19 -57 -14
-57 7 0 6 -9 20 -19 29 -11 10 -23 31 -26 47 -4 17 -13 29 -22 29 -12 0 -14 7
-9 35 4 19 3 35 -1 35 -4 0 -14 4 -22 9 -13 8 -13 12 -1 26 13 15 16 14 42
-16 15 -17 28 -34 28 -38z m350 -211 c0 -5 -4 -10 -10 -10 -5 0 -10 5 -10 10
0 6 5 10 10 10 6 0 10 -4 10 -10z"/>
<path d="M1475 3657 c-5 -12 -2 -24 8 -34 21 -21 35 -13 26 17 l-7 25 -2 -25
c-2 -24 -3 -23 -10 5 -6 25 -8 27 -15 12z"/>
<path d="M1550 3645 c0 -14 4 -25 9 -25 12 0 19 21 13 38 -8 21 -22 13 -22
-13z"/>
<path d="M890 3613 c1 -36 1 -37 16 -18 17 22 15 46 -3 53 -9 2 -13 -8 -13
-35z m17 5 c-3 -8 -6 -5 -6 6 -1 11 2 17 5 13 3 -3 4 -12 1 -19z"/>
<path d="M930 3610 c0 -16 5 -30 10 -30 6 0 10 14 10 30 0 17 -4 30 -10 30 -5
0 -10 -13 -10 -30z"/>
<path d="M1166 3603 c10 -40 14 -41 14 -5 0 18 -5 32 -10 32 -6 0 -8 -11 -4
-27z"/>
<path d="M797 3532 c-3 -4 -3 -19 0 -34 3 -17 10 -25 21 -23 10 2 20 4 25 4 4
1 7 15 7 31 0 25 -4 30 -24 30 -14 0 -27 -3 -29 -8z"/>
<path d="M860 3504 c0 -21 4 -33 10 -29 6 3 10 19 10 36 0 16 -4 29 -10 29 -5
0 -10 -16 -10 -36z"/>
<path d="M895 3528 c-4 -10 -4 -26 0 -35 8 -17 8 -17 12 0 3 9 3 25 0 35 -4
16 -4 16 -12 0z"/>
<path d="M930 3516 c-13 -34 -13 -46 0 -26 6 10 10 11 10 3 0 -7 5 -13 10 -13
6 0 10 8 10 17 0 15 2 14 15 -3 14 -18 14 -18 15 10 0 20 -4 27 -14 23 -7 -3
-18 -1 -24 5 -8 8 -14 4 -22 -16z"/>
<path d="M1000 3516 c0 -14 5 -28 10 -31 6 -3 10 5 10 19 0 14 -4 28 -10 31
-6 3 -10 -5 -10 -19z"/>
<path d="M934 3400 c0 -11 6 -20 13 -20 7 0 13 9 13 20 0 11 -6 20 -13 20 -7
0 -13 -9 -13 -20z"/>
<path d="M1321 3703 c0 -13 -5 -23 -11 -23 -13 0 -13 -47 0 -55 12 -8 23 35
17 71 -3 22 -4 24 -6 7z"/>
<path d="M1341 3634 c0 -11 3 -14 6 -6 3 7 2 16 -1 19 -3 4 -6 -2 -5 -13z"/>
<path d="M1337 3197 c-3 -7 -2 -19 3 -26 5 -10 8 -9 13 2 3 7 2 19 -3 26 -5
10 -8 9 -13 -2z"/>
<path d="M488 3163 c6 -2 18 -2 25 0 6 3 1 5 -13 5 -14 0 -19 -2 -12 -5z"/>
<path d="M2726 2924 c-4 -9 -4 -19 -1 -22 2 -3 7 3 11 12 4 9 4 19 1 22 -2 3
-7 -3 -11 -12z"/>
<path d="M2761 2874 c0 -11 3 -14 6 -6 3 7 2 16 -1 19 -3 4 -6 -2 -5 -13z"/>
<path d="M2321 2808 c0 -9 -4 -25 -7 -35 -5 -17 -5 -17 6 0 6 10 9 25 7 35 -4
15 -5 15 -6 0z"/>
<path d="M3190 2190 c-20 -6 -21 -8 -5 -8 11 0 34 4 50 8 27 7 27 8 5 8 -14 0
-36 -4 -50 -8z"/>
<path d="M3138 2173 c7 -3 16 -2 19 1 4 3 -2 6 -13 5 -11 0 -14 -3 -6 -6z"/>
<path d="M3098 2163 c7 -3 16 -2 19 1 4 3 -2 6 -13 5 -11 0 -14 -3 -6 -6z"/>
<path d="M2425 1670 c-4 -7 3 -8 22 -4 38 9 42 14 10 14 -14 0 -29 -5 -32 -10z"/>
<path d="M2326 1612 c-2 -4 13 -7 34 -7 22 0 33 3 27 7 -16 10 -55 10 -61 0z"/>
<path d="M3105 1740 c3 -5 8 -10 11 -10 2 0 4 5 4 10 0 6 -5 10 -11 10 -5 0
-7 -4 -4 -10z"/>
<path d="M1745 4030 c3 -5 8 -10 11 -10 2 0 4 5 4 10 0 6 -5 10 -11 10 -5 0
-7 -4 -4 -10z"/>
<path d="M1876 4023 c-11 -11 -6 -23 9 -23 8 0 15 4 15 9 0 13 -16 22 -24 14z"/>
<path d="M1580 4010 c0 -5 5 -10 10 -10 6 0 10 5 10 10 0 6 -4 10 -10 10 -5 0
-10 -4 -10 -10z"/>
<path d="M4150 3770 c0 -6 7 -10 15 -10 8 0 15 2 15 4 0 2 -7 6 -15 10 -8 3
-15 1 -15 -4z"/>
<path d="M4218 3773 c7 -3 16 -2 19 1 4 3 -2 6 -13 5 -11 0 -14 -3 -6 -6z"/>
<path d="M4088 3753 c7 -3 16 -2 19 1 4 3 -2 6 -13 5 -11 0 -14 -3 -6 -6z"/>
</g>
</svg>
